<svg xmlns="http://www.w3.org/2000/svg" width="46" height="46" viewBox="0 0 46 46">
  <g id="CustomerSupportIcon" transform="translate(0.5 0.5)">
    <circle id="Ellipse_367" data-name="Ellipse 367" cx="22.5" cy="22.5" r="22.5" fill="#eff1ff" stroke="#e3e6ff" stroke-width="1"/>
    <path id="Path_4727" data-name="Path 4727" d="M72.373,184.028a21.56,21.56,0,0,0,17.654-20.8l-9.366-9.494-4.184,5.186L63.37,160.979l-5.213-5.213-1.711.966,4.753,4.753-11.268.932Z" transform="translate(-45.543 -140.221)" fill="#e3e6ff"/>
    <path id="Path_4728" data-name="Path 4728" d="M93.483,180.874l1.294.491a6.068,6.068,0,0,0,2.491.385l6.381-.359,11.783,10.34a.952.952,0,0,1-.057,1.478l-.2.147a.952.952,0,0,1-1.164-.016l-8.408-6.679a.337.337,0,0,0-.448.026l-.128.128a.337.337,0,0,0,.024.5l6.718,5.537a.952.952,0,0,1,.046,1.43h0a.952.952,0,0,1-1.229.062l-7.115-5.432a.337.337,0,0,0-.463.052h0a.337.337,0,0,0,.053.483l5.7,4.4a.952.952,0,0,1-.017,1.521l-.051.038a.952.952,0,0,1-1.135,0l-5.812-4.34a.337.337,0,0,0-.461.054h0a.337.337,0,0,0,.055.484l3.943,3a.952.952,0,0,1,.136,1.389l-.139.157a.952.952,0,0,1-1.19.193l-14.231-8.226Z" transform="translate(-81.966 -164.977)" fill="#ffedb5"/>
    <path id="Path_4729" data-name="Path 4729" d="M89.865,207.953l14.231,8.226a.952.952,0,0,0,1.19-.193l.139-.157a.952.952,0,0,0-.136-1.389l-3.943-3a.337.337,0,0,1-.055-.484h0a.337.337,0,0,1,.461-.054l5.812,4.34a.952.952,0,0,0,1.135,0l.052-.038.026-.022L92.528,202.628Z" transform="translate(-81.967 -184.819)" fill="#fee187"/>
    <path id="Path_4730" data-name="Path 4730" d="M201.283,161.987l3.877,7.151-5.514,3.662-9.046-7.883-5.662,2.189a1.409,1.409,0,0,1-1.441-.259h0a1.409,1.409,0,0,1,.33-2.328l7.531-3.571a1.245,1.245,0,0,1,1.07,0l4.469,2.135a2.079,2.079,0,0,0,1.574.089Z" transform="translate(-166.935 -146.693)" fill="#ffc61b"/>
    <path id="Path_4731" data-name="Path 4731" d="M330.733,216.281l3.643,3.175,5.514-3.662-2.068-3.814Z" transform="translate(-301.665 -193.349)" fill="#eaa22f"/>
    <rect id="Rectangle_2109" data-name="Rectangle 2109" width="4.135" height="9.735" transform="translate(8.038 24.137) rotate(-151.967)" fill="#ff7f4f"/>
    <g id="Group_2130" data-name="Group 2130" transform="translate(4.388 13.513)">
      <path id="Path_4732" data-name="Path 4732" d="M49.931,205.963l3.65,1.944,2.311-4.341-3.573-2.089Z" transform="translate(-49.931 -197.281)" fill="#d35933"/>
      <rect id="Rectangle_2110" data-name="Rectangle 2110" width="4.135" height="9.735" transform="translate(27.317 2.333) rotate(-34.353)" fill="#d35933"/>
    </g>
    <path id="Path_4733" data-name="Path 4733" d="M397.141,203.953l-2.715-3.973-3.541,2.148,2.842,4.158Z" transform="translate(-356.53 -182.404)" fill="#b54324"/>
  </g>
</svg>
