<svg id="discount-svgrepo-com" xmlns="http://www.w3.org/2000/svg" width="36" height="36" viewBox="0 0 36 36">
  <path id="Path_4931" data-name="Path 4931" d="M35.66,17.172,32.6,14.087l1.1-4.2a1.177,1.177,0,0,0-.828-1.435L28.691,7.309,27.547,3.121a1.177,1.177,0,0,0-1.435-.828l-4.2,1.1L18.829.341a1.177,1.177,0,0,0-1.657,0L14.087,3.4l-4.2-1.1a1.177,1.177,0,0,0-1.435.828L7.309,7.309,3.121,8.453a1.177,1.177,0,0,0-.828,1.435l1.1,4.2L.341,17.172a1.177,1.177,0,0,0,0,1.657L3.4,21.913l-1.1,4.2a1.177,1.177,0,0,0,.828,1.435l4.188,1.144L8.453,32.88a1.177,1.177,0,0,0,1.435.828l4.2-1.1,3.085,3.055a1.177,1.177,0,0,0,1.657,0L21.914,32.6l4.2,1.1a1.177,1.177,0,0,0,1.435-.828l1.144-4.188,4.188-1.144a1.177,1.177,0,0,0,.828-1.435l-1.1-4.2,3.055-3.085A1.177,1.177,0,0,0,35.66,17.172Zm-5.2,3.562a1.177,1.177,0,0,0-.3,1.127l.978,3.722L27.423,26.6a1.177,1.177,0,0,0-.825.825l-1.014,3.712-3.722-.978a1.177,1.177,0,0,0-1.127.3L18,33.166l-2.734-2.707a1.177,1.177,0,0,0-1.127-.3l-3.722.978L9.4,27.423a1.177,1.177,0,0,0-.825-.825L4.866,25.583l.978-3.722a1.177,1.177,0,0,0-.3-1.127L2.834,18l2.707-2.734a1.177,1.177,0,0,0,.3-1.127l-.978-3.722L8.578,9.4A1.177,1.177,0,0,0,9.4,8.578l1.014-3.712,3.722.978a1.177,1.177,0,0,0,1.127-.3L18,2.834l2.734,2.707a1.177,1.177,0,0,0,1.127.3l3.722-.978L26.6,8.578a1.177,1.177,0,0,0,.825.825l3.712,1.014-.978,3.722a1.177,1.177,0,0,0,.3,1.127L33.166,18Z" transform="translate(0 0)" fill="#25b1a7"/>
  <path id="Path_4932" data-name="Path 4932" d="M137.247,133.229a4.017,4.017,0,1,0,4.017,4.017A4.022,4.022,0,0,0,137.247,133.229Zm0,5.624a1.607,1.607,0,1,1,1.607-1.607A1.609,1.609,0,0,1,137.247,138.853Z" transform="translate(-123.924 -123.923)" fill="#25b1a7"/>
  <path id="Path_4933" data-name="Path 4933" d="M271.179,267.161a4.017,4.017,0,1,0,4.017,4.017A4.022,4.022,0,0,0,271.179,267.161Zm0,5.624a1.607,1.607,0,1,1,1.607-1.607A1.609,1.609,0,0,1,271.179,272.785Z" transform="translate(-248.502 -248.501)" fill="#25b1a7"/>
  <path id="Path_4934" data-name="Path 4934" d="M174.436,161.484a1.205,1.205,0,0,0-1.7,0l-11.248,11.248a1.205,1.205,0,1,0,1.7,1.7l11.248-11.248A1.205,1.205,0,0,0,174.436,161.484Z" transform="translate(-149.961 -149.961)" fill="#25b1a7"/>
</svg>
