<svg id="LK_Monogram" xmlns="http://www.w3.org/2000/svg" width="54.729" height="23.305" viewBox="0 0 54.729 23.305">
  <path id="Path_4915" data-name="Path 4915" d="M13.7,19.736A8.594,8.594,0,0,0,22.453,11.3a15.791,15.791,0,0,0,2.425,5.589,13.334,13.334,0,0,1-8.331,3.164A12.4,12.4,0,0,1,13.7,19.736Z" transform="translate(0.747 0.616)" fill="#000041"/>
  <path id="Path_4916" data-name="Path 4916" d="M52.074,11.222a.815.815,0,0,1-.738.844H50.282v-.738A9.186,9.186,0,0,0,48.7,5l2.636.738c.527.211.738.422.738,1.16Z" transform="translate(2.655 0.273)" fill="#000041"/>
  <path id="Path_4917" data-name="Path 4917" d="M0,7c0-.738.105-1.055.738-1.16L3.48,5a10.521,10.521,0,0,0-1.793,6.327v.738H.738A.752.752,0,0,1,0,11.222Z" transform="translate(0 0.273)" fill="#000041"/>
  <path id="Path_4918" data-name="Path 4918" d="M9.1,4.942A7.483,7.483,0,0,1,15.216,2.2c4.851,0,8.647,2.953,10.545,7.8l.949,2.531c2.425,6.327,5.484,9.491,9.174,10.651a14.342,14.342,0,0,1-12.022-9.807l-.844-2.531c-1.793-5.167-4.64-7.593-9.069-7.593A7.736,7.736,0,0,0,9.1,4.942Z" transform="translate(0.496 0.12)" fill="#000041"/>
  <path id="Path_4919" data-name="Path 4919" d="M40.4.6c5.694.738,9.7,5.062,9.7,10.123a8.43,8.43,0,0,1-7.909,8.436,8.367,8.367,0,0,0,4.218-7.8C46.411,6.4,44.091,2.076,40.4.6Z" transform="translate(2.202 0.033)" fill="#000041"/>
  <path id="Path_4920" data-name="Path 4920" d="M32.011.3a15.17,15.17,0,0,0-5.694,4.007A13.45,13.45,0,0,0,20.2.405Z" transform="translate(1.101 0.016)" fill="#000041"/>
  <path id="Path_4921" data-name="Path 4921" d="M26.4,4.851A14.324,14.324,0,0,1,36.418,0a9.878,9.878,0,0,1,9.491,7.382,8.456,8.456,0,0,0-7.276-4.113,8.642,8.642,0,0,0-8.542,8.542C29.036,8.331,27.56,5.905,26.4,4.851Z" transform="translate(1.439 0)" fill="#000041"/>
  <path id="Path_4922" data-name="Path 4922" d="M2.3,11.6C2.3,4.745,7.573,0,15.271,0A15.267,15.267,0,0,1,30.245,10.334l.738,2c2,5.483,5.273,8.014,10.018,8.014,3.585,0,7.7-1.16,9.807-3.691-1.793,4.113-5.8,6.433-10.651,6.433-5.589,0-9.6-3.691-12.022-10.018l-1.055-2.847c-2.32-5.484-6.222-8.647-11.389-8.647-5.8,0-9.807,4.113-9.807,9.912,0,5.905,4.324,9.912,10.862,9.912a13.338,13.338,0,0,0,5.8-1.265A11.926,11.926,0,0,1,14.216,23.2C7.362,23.2,2.3,18.243,2.3,11.6Z" transform="translate(0.126 0)" fill="#000041"/>
</svg>
